<svg id="Layer_1" data-name="Layer 1" xmlns="http://www.w3.org/2000/svg" viewBox="0 0 700 700"><defs><style>.cls-1{fill:#fff;}</style></defs><path class="cls-1" d="M596.6,626.68h-471v-471H596.6ZM462.88,343.86c0-56.2-45.71-102.17-101.65-102.21-56.69,0-102.58,45.52-102.64,101.89S304.23,445.89,360.4,445.93C417,446,462.87,400.27,462.88,343.86ZM275.46,419.1c-2.13,1.29-4.59,2.24-6.32,3.94-11.35,11.13-22.56,22.42-33.79,33.68-4.19,4.21-4.51,9.34-.87,13.11s9.07,3.59,13.37-.66c5.49-5.44,10.94-10.92,16.4-16.38,5.94-5.94,11.9-11.86,17.8-17.83a8.52,8.52,0,0,0,2-9.88C282.71,421.79,279.37,419.68,275.46,419.1Zm161.1,10.81c.78,1.25,1.78,3.8,3.55,5.6,11.05,11.28,22.26,22.4,33.43,33.55,4.32,4.31,9.61,4.62,13.37.84s3.45-9-.92-13.36q-10.78-10.83-21.62-21.61c-4.19-4.2-8.36-8.43-12.61-12.57a8.36,8.36,0,0,0-9.89-1.82C438.5,422.06,436.87,424.86,436.56,429.91ZM285.44,258.56c-1.28-2.14-2.19-4.62-3.88-6.35-11.22-11.43-22.58-22.72-33.93-34-4.14-4.12-9.43-4.28-13.11-.52s-3.37,8.92.78,13.12c3.78,3.83,7.6,7.61,11.4,11.41q11.4,11.41,22.81,22.81a8.54,8.54,0,0,0,9.86,2.09C282.67,265.79,284.82,262.48,285.44,258.56ZM446,268.43c2.06-1.2,4.48-2,6.13-3.65,11.51-11.29,22.88-22.72,34.25-34.15,4.09-4.11,4.18-9.49.4-13.12s-8.85-3.3-12.88.67-8.08,8.06-12.12,12.1q-11.16,11.17-22.32,22.34a8.49,8.49,0,0,0-2,9.86C438.76,265.76,442.11,267.88,446,268.43ZM215.75,352.58v-.06c7.94,0,15.88,0,23.83,0,6,0,10.1-3.63,10.08-8.85s-4-8.73-10.15-8.73q-23.82,0-47.66.07c-5.77,0-9.77,3.67-9.74,8.81s4,8.72,9.8,8.75C199.86,352.6,207.8,352.58,215.75,352.58Zm289.79.07v-.07c7.94,0,15.89,0,23.83,0a13.48,13.48,0,0,0,3.65-.36,8.87,8.87,0,0,0,6.31-9.2,8.72,8.72,0,0,0-8.86-8c-16.22,0-32.44,0-48.67,0-6,0-10.08,3.72-10,8.92s4,8.63,9.9,8.66C489.65,352.68,497.6,352.65,505.54,352.65Zm-136,136h0V465.86c0-.56,0-1.12,0-1.68-.12-5.41-4-9.42-8.94-9.32s-8.6,3.91-8.62,9.23q0,24.17,0,48.34c0,6,3.65,10.08,8.9,10s8.63-4.06,8.65-9.91C369.54,504.57,369.52,496.63,369.52,488.68ZM352,198.81h0c0,8.05,0,16.11,0,24.16,0,5.71,3.75,9.78,8.84,9.74s8.72-4,8.72-9.82q0-24-.06-48c0-5.77-3.68-9.76-8.82-9.74s-8.71,4-8.73,9.82C351.94,182.92,352,190.86,352,198.81Z"/><path d="M462.88,343.86c0,56.41-45.9,102.11-102.48,102.07-56.17,0-101.86-46-101.81-102.39s46-101.93,102.64-101.89C417.17,241.69,462.89,287.66,462.88,343.86Zm-17.58.06c.05-46.54-38-84.69-84.55-84.71a84.58,84.58,0,0,0-.23,169.16C407,428.53,445.26,390.45,445.3,343.92Z"/><path d="M275.46,419.1c3.91.58,7.25,2.69,8.6,6a8.52,8.52,0,0,1-2,9.88c-5.9,6-11.86,11.89-17.8,17.83-5.46,5.46-10.91,10.94-16.4,16.38-4.3,4.25-9.67,4.49-13.37.66s-3.32-8.9.87-13.11c11.23-11.26,22.44-22.55,33.79-33.68C270.87,421.34,273.33,420.39,275.46,419.1Z"/><path d="M436.56,429.91c.31-5.05,1.94-7.85,5.31-9.37a8.36,8.36,0,0,1,9.89,1.82c4.25,4.14,8.42,8.37,12.61,12.57q10.81,10.8,21.62,21.61c4.37,4.39,4.7,9.58.92,13.36s-9.05,3.47-13.37-.84c-11.17-11.15-22.38-22.27-33.43-33.55C438.34,433.71,437.34,431.16,436.56,429.91Z"/><path d="M285.44,258.56c-.62,3.92-2.77,7.23-6.07,8.55a8.54,8.54,0,0,1-9.86-2.09q-11.43-11.38-22.81-22.81c-3.8-3.8-7.62-7.58-11.4-11.41-4.15-4.2-4.44-9.38-.78-13.12s9-3.6,13.11.52c11.35,11.29,22.71,22.58,33.93,34C283.25,253.94,284.16,256.42,285.44,258.56Z"/><path d="M446,268.43c-3.89-.55-7.24-2.67-8.58-5.95a8.49,8.49,0,0,1,2-9.86q11.13-11.19,22.32-22.34c4-4,8.05-8.1,12.12-12.1s9.2-4.2,12.88-.67,3.69,9-.4,13.12c-11.37,11.43-22.74,22.86-34.25,34.15C450.48,266.4,448.06,267.23,446,268.43Z"/><path d="M215.75,352.58c-7.95,0-15.89,0-23.84,0-5.8,0-9.78-3.61-9.8-8.75s4-8.79,9.74-8.81q23.84-.08,47.66-.07c6.14,0,10.12,3.48,10.15,8.73s-4.08,8.83-10.08,8.85c-8,0-15.89,0-23.83,0Z"/><path d="M505.54,352.65c-7.94,0-15.89,0-23.83,0-5.89,0-9.81-3.5-9.9-8.66s4-8.91,10-8.92c16.23,0,32.45-.08,48.67,0a8.72,8.72,0,0,1,8.86,8,8.87,8.87,0,0,1-6.31,9.2,13.48,13.48,0,0,1-3.65.36c-7.94,0-15.89,0-23.83,0Z"/><path d="M369.52,488.68c0,7.95,0,15.89,0,23.83,0,5.85-3.51,9.82-8.65,9.91s-8.89-4-8.9-10q-.06-24.18,0-48.34c0-5.32,3.68-9.14,8.62-9.23s8.82,3.91,8.94,9.32c0,.56,0,1.12,0,1.68v22.82Z"/><path d="M352,198.81c0-7.95,0-15.89,0-23.84,0-5.8,3.59-9.79,8.73-9.82s8.81,4,8.82,9.74q.08,24,.06,48c0,5.84-3.56,9.79-8.72,9.82s-8.82-4-8.84-9.74c0-8.05,0-16.11,0-24.16Z"/><path class="cls-1" d="M445.3,343.92c0,46.53-38.27,84.61-84.78,84.45a84.58,84.58,0,0,1,.23-169.16C407.27,259.23,445.35,297.38,445.3,343.92Z"/></svg>