<svg id="Layer_1" data-name="Layer 1" xmlns="http://www.w3.org/2000/svg" viewBox="0 0 700 700"><defs><style>.cls-1,.cls-2,.cls-3,.cls-4{fill:none;stroke:#000;stroke-linecap:round;stroke-linejoin:round;}.cls-1,.cls-3,.cls-4{stroke-width:11.2px;}.cls-2{stroke-width:11.2px;}.cls-3{stroke-dasharray:16.61 22.14;}.cls-4{stroke-dasharray:15.47 20.63;}</style></defs><path class="cls-1" d="M434.82,512.8l-121.15,14V184.27l121.15-14Z"/><path class="cls-2" d="M379.52,234c1.89,4.6-5,7.44-6.89,2.84s5-7.43,6.89-2.84"/><path class="cls-1" d="M346.75,234.6c0,16.31,29.36,54.52,29.36,54.52s29.36-38.21,29.36-54.52a29.36,29.36,0,0,0-58.72,0Z"/><path class="cls-1" d="M313.67,312.42s46.6-4.66,66.63,47.53,54.52,55,54.52,55"/><path class="cls-1" d="M313.67,449a46.65,46.65,0,0,0,6.52,1.86"/><path class="cls-3" d="M338.83,451.75a49.07,49.07,0,0,0,35.41-21c19.11-26.57,25.17-80.62,45.67-98.79"/><path class="cls-1" d="M427.83,327.34a16.92,16.92,0,0,1,7-1.4"/><path class="cls-1" d="M556,526.78l-121.16-14V170.3l121.16,14Z"/><path class="cls-1" d="M434.82,414.94s48,3.73,66.64,49.4c21,52.19,54.52,36.34,54.52,36.34"/><path class="cls-1" d="M434.82,325.94s2.33-.94,6.53-2.33"/><path class="cls-4" d="M457.19,317.08c13.05-6.52,28-16.31,32.62-28.89,11.65-30.75,26.56-34.95,50.33-35.88"/><path class="cls-1" d="M549,251.85h7"/><path class="cls-1" d="M313.67,526.78,193,512.8V170.3l120.69,14Z"/><path class="cls-1" d="M313.67,312.42S267.07,307.76,247,360s-54.05,55-54.05,55"/><path class="cls-1" d="M313.67,449a46.57,46.57,0,0,1-6.53,1.86"/><path class="cls-3" d="M289,451.75a49.07,49.07,0,0,1-35.41-21c-19.11-26.57-25.17-80.62-45.67-98.79"/><path class="cls-1" d="M200,327.34a16.92,16.92,0,0,0-7-1.4"/></svg>