<svg id="Layer_1" data-name="Layer 1" xmlns="http://www.w3.org/2000/svg" viewBox="0 0 700 700"><path d="M602.12,281.22H528.91a6.54,6.54,0,0,0-6.54,6.54v20.92l-43.92-43.93A68.21,68.21,0,0,0,437.4,245.4l31.9-32a32.15,32.15,0,0,0,0-45.49,32.54,32.54,0,0,0-45.49,0L399.5,192.33l-52.29,52.29H298.05a67.92,67.92,0,0,0-48.37,20.13L139.48,374.69h0a32.67,32.67,0,0,0,0,45.88,33.33,33.33,0,0,0,22,9.55l-40.27,40.13a8.76,8.76,0,0,0-1.17,1.83l-27.59,63.8a6.54,6.54,0,0,0,6,9.15,9.51,9.51,0,0,0,2.61,0l63.79-27.72a6.52,6.52,0,0,0,1.71-1.18l45.36-45.36h0A42.74,42.74,0,0,0,235.43,478h97a37.35,37.35,0,0,1,20.26,6,110.47,110.47,0,0,0,59.87,17.64h48.63A110.48,110.48,0,0,0,521.07,484h.78v23.53a6.54,6.54,0,0,0,6.54,6.53H601.6a6.52,6.52,0,0,0,6.53-6.53V287.75a6.52,6.52,0,0,0-6-6.54ZM149,384,258.83,273.51a55.73,55.73,0,0,1,39.22-16.22h35.69L265.5,325.8A62.72,62.72,0,0,0,250,337.43l-73.6,73.47h0A19.37,19.37,0,0,1,149,383.45Zm78.44,8h-2.22a37,37,0,0,0-5.36,1.57l-2.22.92a50.12,50.12,0,0,0-5.76,3.14h-.78l193-191.39L431,233.11l-96,96-62,62.09H236a39.82,39.82,0,0,0-7.85.79Zm110.59-48h0A37.88,37.88,0,0,1,348,369.33a21.4,21.4,0,0,1-6.41,15.42,21.66,21.66,0,0,1-14.77,6.41H291.52Zm94.39-166.81a19.12,19.12,0,0,1,13.07-5.5,19.41,19.41,0,0,1,13.08,5.5,19.22,19.22,0,0,1,0,26.93L438.71,224,411.79,196.9ZM128.1,486.33,151,508.82l-39.87,17.39Zm34.12,15.43L135.3,474.83l65.36-65.36a3.47,3.47,0,0,1,0,.91,34.57,34.57,0,0,0-3,5.75,11.91,11.91,0,0,0-.91,2.22c-.66,1.7-1.18,3.4-1.7,5.23s0,1.57,0,2.36a39,39,0,0,0-.79,7.84,46.22,46.22,0,0,0,.92,8.37,19.91,19.91,0,0,0,.65,2.61,44,44,0,0,0,1.83,5.36,25.62,25.62,0,0,0,1.31,2.75,38.29,38.29,0,0,0,2.62,4.57c0,.92,1.18,1.84,1.83,2.62l.65.91Zm352.19-29.29h0A97,97,0,0,1,462.12,488h-49a96.55,96.55,0,0,1-52.29-15.55,50.58,50.58,0,0,0-27.46-8.11H236a30.45,30.45,0,0,1-29.41-30.07,30,30,0,0,1,30.06-30.06h91.51a33.77,33.77,0,0,0,24.58-10.33A34.55,34.55,0,0,0,363,369.33,52.29,52.29,0,0,0,350,334.56l76.73-76.87h5.1A55.32,55.32,0,0,1,471,274l53.07,53.08V467.38ZM595.46,501H535.33V294.3h60.13Zm-29.15-22.1h0a20.63,20.63,0,1,1,.13,0Zm0-26.14h0a4.91,4.91,0,1,0,.13.4Z"/></svg>