<svg id="Layer_1" data-name="Layer 1" xmlns="http://www.w3.org/2000/svg" viewBox="0 0 700 700"><path d="M435.49,319.6c21.79-36.72,22.24-80.68,1.16-117.84A115.86,115.86,0,0,0,334.8,142.52,117.24,117.24,0,0,0,217.68,259.65a8.94,8.94,0,0,0,17.87,0,99.32,99.32,0,0,1,99.25-99.26,99.3,99.3,0,0,1,85.33,150.08l-29.84,50.21a111.1,111.1,0,0,0-11.62,85.68,52.56,52.56,0,0,1-9.11,46.45,53.19,53.19,0,0,1-42.44,21H289a53.47,53.47,0,0,1-53.43-53.43,8.93,8.93,0,0,0-17.86,0A71.37,71.37,0,0,0,289,531.67h38.14a71.38,71.38,0,0,0,68.79-90.14,93.47,93.47,0,0,1,9.74-71.92Z"/><path d="M279.32,425.19a8.94,8.94,0,0,0,0,17.87A42.57,42.57,0,0,0,306,367.3a47.6,47.6,0,0,1-17.78-37.16V314.41h24.84a12.78,12.78,0,0,1,12.78,12.78,8.93,8.93,0,0,0,17.86,0,30.68,30.68,0,0,0-30.64-30.64H288.26V264.47a46.56,46.56,0,0,1,86.65-23.67,46.13,46.13,0,0,1,.63,46.19,8.93,8.93,0,1,0,15.63,8.66,64.43,64.43,0,0,0-56.37-95.59,64.43,64.43,0,0,0-64.41,64.41v65.67a65.24,65.24,0,0,0,24.39,51,24.77,24.77,0,0,1-15.46,44Z"/><path d="M528.76,351.67l-32.08-7.32a8.94,8.94,0,1,0-4,17.42l32.08,7.32a7.35,7.35,0,0,0,2,.27,9,9,0,0,0,2.06-17.69Z"/><path d="M435.84,474.06a8.93,8.93,0,1,0-15.09,9.56l17.51,27.87a8.91,8.91,0,1,0,15.1-9.47Z"/><path d="M493.91,218.65l27.87-17.51a8.93,8.93,0,0,0-9.55-15.1l-27.88,17.51a8.86,8.86,0,0,0-2.77,12.33,9,9,0,0,0,7.6,4.2,10.46,10.46,0,0,0,4.73-1.43Z"/></svg>